# xmcd
#
# Track frame offsets:
#	182
#	13595
#	27122
#	44105
#	56710
#	69142
#	84815
#	94395
#	105975
#	117095
#	132932
#	144610
#	156885
#	171895
#	184720
#	203382
#	220740
#	239125
#
# Disc length: 3356
#
# Revision: 1
# Processed by: cddbd v1.5.1PL0 Copyright (c) Steve Scherf et al.
# Submitted via: FreeRIP 2.12 
# Normalized: r0:TDELIM( - )
#
DISCID=f20d1a12
DTITLE=Various Artist - The Charley Blues Masterworks Sampler Vol.2
DYEAR=1900
DGENRE=Blues
TTITLE0=Robert Johnson - I Believe, I'll Dust My Broom
TTITLE1=T. Bone Walker - T-Bone Shuffle
TTITLE2=Muddy Waters - 19 Years Old
TTITLE3=John Lee Hooker - Mambo Chillun
TTITLE4=Elmore James - Got to Move
TTITLE5=Sonny Boy Wiliamson - Nine Below Zero
TTITLE6=Memphis Slim - Rockin' the House
TTITLE7=Howlin' Wolf - Who Will Be Next
TTITLE8=Jimmy Witherspoon - Good Rockin Tonight
TTITLE9=Magic Sam - Easy Baby
TTITLE10=Little Walter - My Babe
TTITLE11=Otis Rush - Double Trouble
TTITLE12=Buddy Guy - My Time After While(alternate take)
TTITLE13=Jimmy Reed - Shame Shame Shame
TTITLE14=The Super Super Blues Band - Who Do You Love
TTITLE15=Howlin' Wolf and Eric Clapton - Little Red Rooster
TTITLE16=Albert King - Don't Burn Down the Bridge
TTITLE17=Robert Cray - Too Many Cooks
EXTD=Charley R&B - London\nCD BMS101
EXTT0=
EXTT1=
EXTT2=
EXTT3=
EXTT4=
EXTT5=
EXTT6=
EXTT7=
EXTT8=
EXTT9=
EXTT10=
EXTT11=
EXTT12=
EXTT13=
EXTT14=
EXTT15=
EXTT16=
EXTT17=
PLAYORDER=
